<svg width="108" height="20" viewBox="0 0 108 20" fill="none" xmlns="http://www.w3.org/2000/svg">
<path d="M0.709732 18V0.665695H7.34552C8.5982 0.665695 9.63927 0.86319 10.4687 1.25818C11.3039 1.64752 11.9274 2.18075 12.3393 2.85788C12.7568 3.535 12.9656 4.3024 12.9656 5.16009C12.9656 5.86542 12.8302 6.46919 12.5594 6.97139C12.2885 7.46794 11.9246 7.8714 11.4675 8.18174C11.0104 8.49209 10.4998 8.71498 9.93551 8.8504V9.01968C10.5506 9.05354 11.1402 9.24257 11.7045 9.58677C12.2744 9.92533 12.7399 10.405 13.1011 11.0257C13.4622 11.6463 13.6427 12.3968 13.6427 13.2771C13.6427 14.1743 13.4255 14.9812 12.991 15.6978C12.5565 16.4088 11.902 16.9702 11.0274 17.3821C10.1528 17.794 9.05243 18 7.7264 18H0.709732ZM3.84988 15.3762H7.22703C8.36685 15.3762 9.18785 15.1589 9.69005 14.7244C10.1979 14.2843 10.4518 13.72 10.4518 13.0316C10.4518 12.5181 10.3249 12.0554 10.0709 11.6435C9.81701 11.226 9.45588 10.8987 8.98754 10.6617C8.5192 10.4191 7.96057 10.2977 7.31166 10.2977H3.84988V15.3762ZM3.84988 8.03785H6.95618C7.49787 8.03785 7.98596 7.93911 8.42045 7.74161C8.85494 7.53848 9.19632 7.25352 9.4446 6.88675C9.69852 6.51433 9.82548 6.0742 9.82548 5.56636C9.82548 4.89488 9.58848 4.3419 9.1145 3.90741C8.64616 3.47293 7.94929 3.25568 7.02389 3.25568H3.84988V8.03785Z" fill="black"/>
<path fill-rule="evenodd" clip-rule="evenodd" d="M34.0933 3.17578H20.4844V0.668877H34.0933V3.17578Z" fill="#F66135"/>
<path fill-rule="evenodd" clip-rule="evenodd" d="M34.0933 10.3389H20.4844V7.83196H34.0933V10.3389Z" fill="#F66135"/>
<path fill-rule="evenodd" clip-rule="evenodd" d="M34.0933 17.502H20.4844V14.995H34.0933V17.502Z" fill="#F66135"/>
<path d="M98.6689 18.7783H92.7948V1.44402H98.7874C100.508 1.44402 101.987 1.79104 103.222 2.48509C104.464 3.1735 105.418 4.16379 106.083 5.45596C106.749 6.74813 107.082 8.29423 107.082 10.0942C107.082 11.8999 106.746 13.4516 106.075 14.7494C105.409 16.0473 104.447 17.0432 103.189 17.7372C101.936 18.4313 100.429 18.7783 98.6689 18.7783ZM95.935 16.0614H98.5165C99.724 16.0614 100.731 15.8413 101.538 15.4012C102.345 14.9554 102.952 14.2924 103.358 13.4121C103.764 12.5262 103.967 11.4203 103.967 10.0942C103.967 8.76821 103.764 7.66789 103.358 6.79327C102.952 5.91302 102.351 5.25565 101.555 4.82116C100.765 4.38103 99.7833 4.16097 98.6096 4.16097H95.935V16.0614Z" fill="black"/>
<path d="M89.3732 1.44402V18.7783H86.5801L78.4123 6.97102H78.2685V18.7783H75.1283V1.44402H77.9384L86.0977 13.2598H86.25V1.44402H89.3732Z" fill="black"/>
<path d="M72.1596 10.1112C72.1596 11.9789 71.8097 13.5786 71.11 14.9103C70.416 16.2363 69.468 17.252 68.2661 17.9573C67.0699 18.6626 65.7128 19.0153 64.1949 19.0153C62.677 19.0153 61.3172 18.6626 60.1153 17.9573C58.919 17.2463 57.9711 16.2278 57.2714 14.9018C56.5773 13.5701 56.2303 11.9733 56.2303 10.1112C56.2303 8.24344 56.5773 6.64656 57.2714 5.32054C57.9711 3.98886 58.919 2.97036 60.1153 2.26503C61.3172 1.55969 62.677 1.20702 64.1949 1.20702C65.7128 1.20702 67.0699 1.55969 68.2661 2.26503C69.468 2.97036 70.416 3.98886 71.11 5.32054C71.8097 6.64656 72.1596 8.24344 72.1596 10.1112ZM69.0025 10.1112C69.0025 8.79643 68.7965 7.68764 68.3846 6.78481C67.9783 5.87634 67.4141 5.19075 66.6918 4.72806C65.9695 4.25971 65.1373 4.02554 64.1949 4.02554C63.2526 4.02554 62.4203 4.25971 61.698 4.72806C60.9758 5.19075 60.4087 5.87634 59.9968 6.78481C59.5905 7.68764 59.3874 8.79643 59.3874 10.1112C59.3874 11.4259 59.5905 12.5375 59.9968 13.446C60.4087 14.3488 60.9758 15.0344 61.698 15.5027C62.4203 15.9654 63.2526 16.1968 64.1949 16.1968C65.1373 16.1968 65.9695 15.9654 66.6918 15.5027C67.4141 15.0344 67.9783 14.3488 68.3846 13.446C68.7965 12.5375 69.0025 11.4259 69.0025 10.1112Z" fill="black"/>
<path d="M39.681 1.44402H43.2274L47.4679 9.11241H47.6372L51.8777 1.44402H55.4241L49.1184 12.3118V18.7783H45.9867V12.3118L39.681 1.44402Z" fill="black"/>
</svg>
